<?xml version="1.0" encoding="utf-8"?>
<!-- License: MIT. Made by teenyicons: https://github.com/teenyicons/teenyicons -->
<svg width="200px" height="200px" viewBox="0 0 19.5 19.5" fill="none" xmlns="http://www.w3.org/2000/svg" stroke-width="3"  stroke="#FFB627" >
   <path d="M 1.5 4.5 V 10.5 L 7.5 14 L 13.5 10.5 V 4.5 L 7.5 1 L 1.5 4.5 Z" 
      transform="scale(0.5) translate(6,2.5)"/>
   <path d="M 1.5 4.5 V 10.5 L 7.5 14 L 13.5 10.5 V 4.5 L 7.5 1 L 1.5 4.5 Z"
      transform="scale(0.5) translate(18,2.5)"/>
   
   <path d="M 1.5 4.5 V 10.5 L 7.5 14 L 13.5 10.5 V 4.5 L 7.5 1 L 1.5 4.5 Z"
      transform="scale(0.5) translate(0, 12)"/>
   <path d="M 1.5 4.5 V 10.5 L 7.5 14 L 13.5 10.5 V 4.5 L 7.5 1 L 1.5 4.5 Z"
      transform="scale(0.5) translate(12, 12)"/>
   <path d="M 1.5 4.5 V 10.5 L 7.5 14 L 13.5 10.5 V 4.5 L 7.5 1 L 1.5 4.5 Z"
   transform="scale(0.5) translate(24, 12)"/>
   
   <path d="M 1.5 4.5 V 10.5 L 7.5 14 L 13.5 10.5 V 4.5 L 7.5 1 L 1.5 4.5 Z"
      transform="scale(0.5) translate(6, 21.5)"/>
   <path d="M 1.5 4.5 V 10.5 L 7.5 14 L 13.5 10.5 V 4.5 L 7.5 1 L 1.5 4.5 Z"
      transform="scale(0.5) translate(18, 21.5)"/>
</svg>